# xmcd
#
# Track frame offsets:
#   150
#   13623
#   33656
#   51698
#   70041
#   90671
#   106765
#   125600
#   146676
#   165845
#   184847
#   204015
#   224090
#   244157
#   260003
#
# Disc length: 3679 seconds
#
# Revision: 0
# Processed by: cddbd v1.5.1PL0 Copyright (c) Steve Scherf et al.
# Submitted via: Media_Universe 3.0
#
DISCID=da0e5d0f
DTITLE=Reba McEntire - I'll Be
DYEAR=1900
DGENRE=Country
TTITLE0=If I Fell
TTITLE1=I'll Be
TTITLE2=What If
TTITLE3=By The Time I Get To Phoenix
TTITLE4=On My Own
TTITLE5=Youre No Good
TTITLE6=Starting Over
TTITLE7=Please Come To Boston
TTITLE8=Ring On Her Finger, Time On Her Hands
TTITLE9=New Fool At An Old Game
TTITLE10=I Wont Mention It Again
TTITLE11=Five Hundred Miles Away From Home
TTITLE12=Talking In Your Sleep
TTITLE13=What Do You Say
TTITLE14=We're So Good Together
EXTD=
EXTT0=
EXTT1=
EXTT2=
EXTT3=
EXTT4=
EXTT5=
EXTT6=
EXTT7=
EXTT8=
EXTT9=
EXTT10=
EXTT11=
EXTT12=
EXTT13=
EXTT14=
PLAYORDER=
